<svg width="1920" height="497" viewBox="0 0 1920 497" fill="none" xmlns="http://www.w3.org/2000/svg">
<g clip-path="url(#clip0_996_124)">
<path d="M1637 424.5L1932 234.5V21.0002L3.32643e-05 21L0 401.5L112 346L218.5 426L437 307L708 463L820.5 445.5L911 496.5L1148 324L1236 383L1422 307L1637 424.5Z" fill="black" fill-opacity="0.5"/>
<path d="M1638 424.5L1932 213.5V0.000168901L3.32643e-05 0L0 380.5L112 325L218.5 424.5L437 286L709 463L820.5 424.5L910 497L1148 303L1238 380.5L1422 286L1638 424.5Z" fill="#0F141C"/>
</g>
<defs>
<clipPath id="clip0_996_124">
<rect width="1920" height="497" fill="white"/>
</clipPath>
</defs>
</svg>
